<svg height="512" viewBox="0 0 60 60" width="512" xmlns="http://www.w3.org/2000/svg"><g id="Page-1" fill="none" fill-rule="evenodd"><g id="009---4-Way-Traffic-Arrow-" fill="rgb(0,0,0)" fill-rule="nonzero" transform="translate(-1)"><path id="Shape" d="m1.7061 31.3965 11.6308 8.3c.513933.365154 1.188756.4127411 1.748848.1233252.5600919-.2894159.9116756-.8673775.911152-1.4978252v-3.32h10v10h-3.31c-.6377293-.0022266-1.2219225.3562345-1.5088.9258-.2859784.5556931-.2350159 1.2250112.1318 1.731l6.17 8.57 2.164 3.0669c.3185204.4437379.83078.7074939 1.377.709h.0156c.5395765-.004645 1.0436889-.2696066 1.3535-.7114l8.3028-11.6324c.3643287-.514176.4112383-1.1886929.1215898-1.7483501-.2896484-.5596572-.8674215-.910872-1.4975898-.9103499h-3.32v-10h10v3.32c-.0017242.6312266.3499312 1.2103387.9108088 1.4999354s1.2366499.2409742 1.7502912-.1259354l11.6172-8.291c.448893-.3099787.7192194-.8187099.7249-1.3642.0028281-.5539622-.2642318-1.0746133-.7158-1.3955l-9.6895-6.96-1.9258-1.3593c-.5124386-.373343-1.1913034-.4267299-1.7558021-.1380787-.5644987.2886511-.9186609.8702667-.9159979 1.5042787v3.31h-10v-10h3.32c.6307088.0005568 1.2088892-.3512647 1.4982474-.9116804s.2414106-1.2355245-.1242474-1.7494196l-8.2917-11.6172c-.3095971-.44823889-.8175669-.71823882-1.3623-.7241h-.0156c-.5488795.00229075-1.0630823.26871591-1.3815.7158l-6.96 9.69-1.3584 1.9253c-.3747449.5077325-.4299718 1.1837785-.1426 1.7456.2868874.5695432.8710863.927969 1.5088.9257h3.31v10h-10v-3.31c.0023226-.6378828-.3561389-1.2222702-.9258-1.5093-.555788-.2849675-1.2244906-.2338439-1.7305.1323l-8.5693 6.17-3.0691 2.1646c-.44755204.3212855-.71148262.839678-.708 1.3906.00407904.5402782.26890359 1.0453072.711 1.3559zm10.8486-8.0772 1.4424-1.0193v3.7021c0 .5522847.4477153 1 1 1h12c.5522847 0 1-.4477153 1-1v-12c0-.5522847-.4477153-1-1-1h-3.7022l5.82-8.0732 1.9037-2.6979 7.6875 10.7714h-3.709c-.5522847 0-1 .4477153-1 1v12c0 .5522847.4477153 1 1 1h12c.5522847 0 1-.4477153 1-1v-3.7024l8.0729 5.82 2.6983 1.9043-10.7715 7.687v-3.7089c0-.5522847-.4477153-1-1-1h-12c-.5522847 0-1 .4477153-1 1v12c0 .5522847.4477153 1 1 1h3.709l-7.6872 10.7715-6.7041-9.3281-1.02-1.4434h3.7022c.5522847 0 1-.4477153 1-1v-12c0-.5522847-.4477153-1-1-1h-12c-.5522847 0-1 .4477153-1 1v3.7076l-10.7711-7.6861z"/></g></g></svg>