<svg height="512" viewBox="0 0 51 60" width="512" xmlns="http://www.w3.org/2000/svg"><g id="002---Up-Arrow"><path id="Shape" d="m2.03 17.446 7.97 3.364v28.735c.0058835.7942174.4811675 1.5096944 1.211 1.823 21.9 9.297 20.156 8.642 20.789 8.632.685-.016.326.068 8.462-4.193.3316243-.1727498.5391657-.5160805.538-.89v-20.926c1.19.507 1.45.707 1.964.437l6.993-3.665c.5105761-.265346.8798739-.7403627 1.0111404-1.3005997s.0114201-1.1498628-.3281404-1.6144003l-19.822-27.031c-.5928634-.7943887-1.6734543-1.04317001-2.554-.588l-26.373 13.644c-.68291393.3498134-1.10074884 1.0641511-1.07092143 1.8308657.0298274.7667145.5018951 1.4464325 1.20992143 1.7421343zm36.97 36.866-5.995 3.137v-26.856l5.995 2.548zm-9.795-52.312 19.823 26.991-6.228 3.266-19.8-27.012zm-8.005 4.178 18.341 25.022-5.757-2.448c-.6148847-.2620359-1.3200244-.1995913-1.8792913.1664232-.5592669.3660144-.8987278.987213-.9047087 1.6555768v27.026l-19-8.055v-28.735c-.0031945-.7944538-.4783816-1.5109683-1.209-1.823l-7.983-3.337z"/><path id="Shape" d="m15 40c.5522847 0 1-.4477153 1-1v-14c0-.5522847-.4477153-1-1-1s-1 .4477153-1 1v14c0 .5522847.4477153 1 1 1z"/><path id="Shape" d="m15 48c.5522847 0 1-.4477153 1-1v-3c0-.5522847-.4477153-1-1-1s-1 .4477153-1 1v3c0 .5522847.4477153 1 1 1z"/></g></svg>