<?xml version="1.0" encoding="iso-8859-1"?>
<!-- Generator: Adobe Illustrator 19.0.0, SVG Export Plug-In . SVG Version: 6.00 Build 0)  -->
<svg version="1.1" id="Layer_1" xmlns="http://www.w3.org/2000/svg" xmlns:xlink="http://www.w3.org/1999/xlink" x="0px" y="0px"
	 viewBox="0 0 511.999 511.999" style="enable-background:new 0 0 511.999 511.999;" xml:space="preserve">
<g>
	<g>
		<g>
			<path d="M399.436,191.249L262.903,3.516C261.298,1.306,258.738,0,255.999,0c-2.731,0-5.291,1.306-6.895,3.516L112.571,191.249
				c-1.084,1.485-1.638,3.251-1.638,5.018c0,1.323,0.316,2.645,0.939,3.874c1.451,2.859,4.386,4.659,7.595,4.659h85.333v93.867
				c0,4.719,3.823,8.533,8.533,8.533h85.333c4.719,0,8.533-3.814,8.533-8.533V204.8h85.333c3.209,0,6.153-1.8,7.603-4.659
				C401.595,197.291,401.322,193.852,399.436,191.249z"/>
			<path d="M281.603,324.266h-51.2c-14.114,0-25.6,11.486-25.6,25.6s11.486,25.6,25.6,25.6h51.2c14.114,0,25.6-11.486,25.6-25.6
				S295.717,324.266,281.603,324.266z"/>
			<path d="M281.603,392.532h-51.2c-14.114,0-25.6,11.486-25.6,25.6s11.486,25.6,25.6,25.6h51.2c14.114,0,25.6-11.486,25.6-25.6
				S295.717,392.532,281.603,392.532z"/>
			<path d="M281.603,460.799h-51.2c-14.114,0-25.6,11.486-25.6,25.6s11.486,25.6,25.6,25.6h51.2c14.114,0,25.6-11.486,25.6-25.6
				S295.717,460.799,281.603,460.799z"/>
		</g>
	</g>
</g>
<g>
</g>
<g>
</g>
<g>
</g>
<g>
</g>
<g>
</g>
<g>
</g>
<g>
</g>
<g>
</g>
<g>
</g>
<g>
</g>
<g>
</g>
<g>
</g>
<g>
</g>
<g>
</g>
<g>
</g>
</svg>
